<svg xmlns="http://www.w3.org/2000/svg" width="1087.148" height="330.546" viewBox="0 0 1087.148 330.546"><g transform="translate(-403.75 -374.727)"><path d="M163.375,21a14,14,0,0,1,24.249,0L338.877,283a14,14,0,0,1-12.125,21H24.248a14,14,0,0,1-12.125-21Z" transform="translate(707.75 364.5) rotate(90)" fill="#d63e3e"/><path d="M163.375,21a14,14,0,0,1,24.249,0L338.877,283a14,14,0,0,1-12.125,21H24.248a14,14,0,0,1-12.125-21Z" transform="translate(474.75 715.5) rotate(-90)" fill="rgba(255,207,156,0.9)"/><path d="M124.414,146.031a42.07,42.07,0,0,1-6.689,23.34q-6.689,10.352-19.58,16.211t-30.566,5.859q-21.191,0-34.961-8.008a46.579,46.579,0,0,1-15.869-15.381q-6.1-9.619-6.1-18.7a12.677,12.677,0,0,1,12.988-12.793,11.025,11.025,0,0,1,7.764,2.93,23.041,23.041,0,0,1,5.42,8.691,58.072,58.072,0,0,0,5.908,11.426,23.951,23.951,0,0,0,8.936,7.568q5.762,2.979,15.137,2.979,12.891,0,20.947-6.006t8.057-14.99a15.847,15.847,0,0,0-4.346-11.572,28.024,28.024,0,0,0-11.23-6.787q-6.885-2.344-18.408-4.98a135.044,135.044,0,0,1-25.83-8.447,41.744,41.744,0,0,1-16.5-13.184q-6.1-8.35-6.1-20.752a35.637,35.637,0,0,1,6.445-21q6.445-9.18,18.652-14.111t28.711-4.932q13.184,0,22.8,3.271a48.191,48.191,0,0,1,15.967,8.691,36.306,36.306,0,0,1,9.277,11.377,26.236,26.236,0,0,1,2.93,11.621,13.735,13.735,0,0,1-3.662,9.326,11.679,11.679,0,0,1-9.131,4.15q-4.98,0-7.568-2.49a33.555,33.555,0,0,1-5.615-8.154,36.97,36.97,0,0,0-9.375-12.646Q77.344,64,65.234,64,54,64,47.119,68.932T40.234,80.8a12.02,12.02,0,0,0,2.344,7.422,19.73,19.73,0,0,0,6.445,5.371,43.454,43.454,0,0,0,8.3,3.516q4.2,1.27,13.867,3.711a217.594,217.594,0,0,1,21.924,6.25,66.618,66.618,0,0,1,16.7,8.3,34.145,34.145,0,0,1,10.742,12.354Q124.414,135.191,124.414,146.031Zm125.977,20.41L227.246,80.6l-23.437,85.84q-2.734,9.766-4.346,14.014a18.577,18.577,0,0,1-5.615,7.617q-4,3.369-10.645,3.369a17.5,17.5,0,0,1-8.838-2,15.369,15.369,0,0,1-5.615-5.664,35.591,35.591,0,0,1-3.516-8.691q-1.367-5.029-2.441-9.326L138.965,69.371q-2.148-8.4-2.148-12.793a12.58,12.58,0,0,1,3.906-9.375,13.307,13.307,0,0,1,9.668-3.809q7.91,0,10.645,5.078t4.785,14.746l18.75,83.594,21-78.223a125.939,125.939,0,0,1,4.2-13.672,19.727,19.727,0,0,1,6.055-8.105q4.2-3.418,11.426-3.418,7.324,0,11.377,3.564a19.461,19.461,0,0,1,5.615,7.764q1.563,4.2,4.2,13.867l21.191,78.223,18.75-83.594a99.806,99.806,0,0,1,2.588-10.254,16.45,16.45,0,0,1,4.2-6.641q2.979-2.93,8.643-2.93a13.446,13.446,0,0,1,9.619,3.76,12.46,12.46,0,0,1,3.955,9.424q0,4-2.148,12.793l-23.828,96.387q-2.441,9.766-4.053,14.307a19.051,19.051,0,0,1-5.469,7.959q-3.857,3.418-10.889,3.418-6.641,0-10.645-3.32a17.963,17.963,0,0,1-5.566-7.471Q253.223,176.5,250.391,166.441Zm177.832,6.348-6.836-17.969h-58.2l-6.836,18.359q-4,10.742-6.836,14.5t-9.277,3.76a13.6,13.6,0,0,1-9.668-4,12.261,12.261,0,0,1-4.2-9.082,20.258,20.258,0,0,1,.977-6.055q.977-3.125,3.223-8.691l36.621-92.969q1.562-4,3.76-9.619a48.637,48.637,0,0,1,4.688-9.326,19.044,19.044,0,0,1,6.543-6.006,20.056,20.056,0,0,1,10.01-2.295,20.274,20.274,0,0,1,10.107,2.295,19.432,19.432,0,0,1,6.543,5.908,41.438,41.438,0,0,1,4.2,7.764q1.709,4.15,4.346,11.084l37.4,92.383q4.395,10.547,4.395,15.332a12.692,12.692,0,0,1-4.15,9.131,13.641,13.641,0,0,1-10.01,4.15,12.977,12.977,0,0,1-5.859-1.221,12,12,0,0,1-4.1-3.32,30.548,30.548,0,0,1-3.564-6.445Q429.59,176.109,428.223,172.789ZM370.8,133.043h42.773L391.992,73.961Zm165.234.2H509.473v40.527q0,8.691-4.1,13.184a14.452,14.452,0,0,1-20.9.049q-4-4.443-4-13.037V63.609q0-9.57,4.395-13.672t13.965-4.1h37.207q16.5,0,25.391,2.539a37.806,37.806,0,0,1,15.186,8.105,36.547,36.547,0,0,1,9.717,13.867,48.813,48.813,0,0,1,3.32,18.457q0,21.875-13.477,33.154T536.035,133.238ZM529,67.613H509.473v43.75H529a58.342,58.342,0,0,0,17.139-2.148,19.975,19.975,0,0,0,10.5-7.031q3.613-4.883,3.613-12.793,0-9.473-5.566-15.43Q548.437,67.613,529,67.613Z" transform="translate(901.25 425)" fill="#222"/></g></svg>
