<svg xmlns="http://www.w3.org/2000/svg" width="375" height="330.546" viewBox="0 0 375 330.546"><g transform="translate(-403.75 -374.727)"><path d="M163.375,21a14,14,0,0,1,24.249,0L338.877,283a14,14,0,0,1-12.125,21H24.248a14,14,0,0,1-12.125-21Z" transform="translate(707.75 364.5) rotate(90)" fill="#d63e3e"/><path d="M163.375,21a14,14,0,0,1,24.249,0L338.877,283a14,14,0,0,1-12.125,21H24.248a14,14,0,0,1-12.125-21Z" transform="translate(474.75 715.5) rotate(-90)" fill="rgba(255,207,156,0.9)"/></g></svg>