<?xml version="1.0" encoding="UTF-8" standalone="no"?>
<svg
   xmlns:dc="http://purl.org/dc/elements/1.1/"
   xmlns:cc="http://creativecommons.org/ns#"
   xmlns:rdf="http://www.w3.org/1999/02/22-rdf-syntax-ns#"
   xmlns:svg="http://www.w3.org/2000/svg"
   xmlns="http://www.w3.org/2000/svg"
   xmlns:sodipodi="http://sodipodi.sourceforge.net/DTD/sodipodi-0.dtd"
   xmlns:inkscape="http://www.inkscape.org/namespaces/inkscape"
   width="1284.947mm"
   height="220.976mm"
   viewBox="0 0 1284.947 220.976"
   version="1.1"
   id="svg8"
   inkscape:version="1.0.1 (3bc2e813f5, 2020-09-07)"
   sodipodi:docname="rating_bg.svg">
  <defs
     id="defs2" />
  <sodipodi:namedview
     id="base"
     pagecolor="#ffffff"
     bordercolor="#666666"
     borderopacity="1.0"
     inkscape:pageopacity="0.0"
     inkscape:pageshadow="2"
     inkscape:zoom="0.175"
     inkscape:cx="1064.1013"
     inkscape:cy="2810.0759"
     inkscape:document-units="mm"
     inkscape:current-layer="layer1"
     inkscape:document-rotation="0"
     showgrid="false"
     inkscape:snap-bbox="true"
     inkscape:bbox-paths="true"
     inkscape:bbox-nodes="true"
     inkscape:snap-bbox-edge-midpoints="true"
     inkscape:snap-bbox-midpoints="true"
     inkscape:object-paths="true"
     inkscape:snap-intersection-paths="true"
     inkscape:snap-smooth-nodes="true"
     inkscape:snap-midpoints="true"
     inkscape:snap-object-midpoints="true"
     inkscape:snap-center="true"
     inkscape:snap-text-baseline="true"
     inkscape:snap-page="true"
     showguides="true"
     inkscape:guide-bbox="true"
     inkscape:window-width="2160"
     inkscape:window-height="1351"
     inkscape:window-x="-9"
     inkscape:window-y="-9"
     inkscape:window-maximized="1">
    <sodipodi:guide
       position="10.690781,-328.69798"
       orientation="0,-1"
       id="guide890" />
    <sodipodi:guide
       position="-128.34748,-218.20992"
       orientation="1,0"
       id="guide892" />
    <sodipodi:guide
       position="-36.348655,-107.72187"
       orientation="0,-1"
       id="guide894" />
    <sodipodi:guide
       position="1156.5992,-189.83333"
       orientation="1,0"
       id="guide896" />
  </sodipodi:namedview>
  <metadata
     id="metadata5">
    <rdf:RDF>
      <cc:Work
         rdf:about="">
        <dc:format>image/svg+xml</dc:format>
        <dc:type
           rdf:resource="http://purl.org/dc/dcmitype/StillImage" />
        <dc:title></dc:title>
      </cc:Work>
    </rdf:RDF>
  </metadata>
  <g
     inkscape:label="Lag 1"
     inkscape:groupmode="layer"
     id="layer1">
    <path
       id="rect898"
       style="fill:#ffffff;stroke:none;stroke-width:20.4936;stroke-linecap:round;stroke-miterlimit:4;stroke-dasharray:none"
       d="M 0,3.3987542e-4 V 220.976 H 1284.9469 V 3.3987542e-4 Z M 116.1743,30.4574 137.73319,92.479437 203.3819,93.817355 151.05744,133.48676 170.07127,196.33564 116.1743,158.83096 62.276817,196.33564 81.291162,133.48676 28.966707,93.817355 94.615412,92.479437 Z m 263.14983,0 21.55889,62.022037 65.64818,1.337918 -52.32445,39.669405 19.01433,62.84888 -53.89695,-37.50468 -53.89749,37.50468 19.01435,-62.84888 -52.32446,-39.669405 65.64871,-1.337918 z m 263.1493,0 21.55891,62.022037 65.6487,1.337918 -52.32447,39.669405 19.01436,62.84888 -53.8975,-37.50468 -53.89695,37.50468 19.0138,-62.84888 -52.32445,-39.669405 65.64871,-1.337918 z m 263.14984,0 21.55888,62.022037 65.64871,1.337918 -52.32445,39.669405 19.01383,62.84888 -53.89697,-37.50468 -53.8975,37.50468 19.01436,-62.84888 -52.32445,-39.669405 65.64871,-1.337918 z m 263.14983,0 21.5589,62.022037 65.6482,1.337918 -52.3245,39.669405 19.0144,62.84888 -53.897,-37.50468 -53.8975,37.50468 19.0143,-62.84888 -52.3244,-39.669405 65.6487,-1.337918 z" />
  </g>
</svg>
