<svg xmlns="http://www.w3.org/2000/svg" width="476.423" height="144.856" viewBox="0 0 476.423 144.856"><g transform="translate(-403.75 -374.727)"><path d="M60.5,88.373A18.436,18.436,0,0,1,57.57,98.6a19.475,19.475,0,0,1-8.581,7.1,32.151,32.151,0,0,1-13.4,2.568q-9.287,0-15.321-3.509a20.412,20.412,0,0,1-6.954-6.74,15.3,15.3,0,0,1-2.675-8.2,5.555,5.555,0,0,1,5.692-5.606,4.832,4.832,0,0,1,3.4,1.284,10.1,10.1,0,0,1,2.375,3.809A25.449,25.449,0,0,0,24.7,94.322a10.5,10.5,0,0,0,3.916,3.317,14.474,14.474,0,0,0,6.633,1.305,14.967,14.967,0,0,0,9.18-2.632,7.918,7.918,0,0,0,3.531-6.569,6.944,6.944,0,0,0-1.9-5.071A12.281,12.281,0,0,0,41.137,81.7Q38.12,80.67,33.07,79.514a59.18,59.18,0,0,1-11.32-3.7,18.294,18.294,0,0,1-7.233-5.777,15,15,0,0,1-2.675-9.094,15.617,15.617,0,0,1,2.825-9.2,17.807,17.807,0,0,1,8.174-6.184,33.472,33.472,0,0,1,12.582-2.161,31.122,31.122,0,0,1,9.993,1.434,21.119,21.119,0,0,1,7,3.809,15.911,15.911,0,0,1,4.066,4.986,11.5,11.5,0,0,1,1.284,5.093,6.019,6.019,0,0,1-1.6,4.087,5.118,5.118,0,0,1-4,1.819A4.6,4.6,0,0,1,48.84,63.53a14.705,14.705,0,0,1-2.461-3.573,16.2,16.2,0,0,0-4.108-5.542q-2.4-1.99-7.7-1.99a13.34,13.34,0,0,0-7.939,2.161,6.285,6.285,0,0,0-3.017,5.2,5.268,5.268,0,0,0,1.027,3.252,8.646,8.646,0,0,0,2.825,2.354A19.042,19.042,0,0,0,31.1,66.932q1.84.556,6.077,1.626A95.357,95.357,0,0,1,46.786,71.3,29.194,29.194,0,0,1,54.1,74.935a14.963,14.963,0,0,1,4.708,5.414A17.338,17.338,0,0,1,60.5,88.373Zm55.207,8.944L105.566,59.7,95.3,97.318q-1.2,4.28-1.9,6.141A8.141,8.141,0,0,1,90.93,106.8a7.006,7.006,0,0,1-4.665,1.476,7.667,7.667,0,0,1-3.873-.877,6.735,6.735,0,0,1-2.461-2.482,15.6,15.6,0,0,1-1.541-3.809q-.6-2.2-1.07-4.087L66.879,54.778a24.718,24.718,0,0,1-.942-5.606,5.513,5.513,0,0,1,1.712-4.108,5.832,5.832,0,0,1,4.237-1.669q3.466,0,4.665,2.225a25.139,25.139,0,0,1,2.1,6.462l8.217,36.633,9.2-34.28a55.191,55.191,0,0,1,1.84-5.991,8.645,8.645,0,0,1,2.653-3.552,7.7,7.7,0,0,1,5.007-1.5,7.3,7.3,0,0,1,4.986,1.562,8.528,8.528,0,0,1,2.461,3.4q.685,1.84,1.84,6.077l9.287,34.28,8.217-36.633a43.743,43.743,0,0,1,1.134-4.494,7.209,7.209,0,0,1,1.84-2.91,5.181,5.181,0,0,1,3.787-1.284,5.893,5.893,0,0,1,4.215,1.648,5.46,5.46,0,0,1,1.733,4.13,26.817,26.817,0,0,1-.942,5.606l-10.442,42.24q-1.07,4.28-1.776,6.27a8.349,8.349,0,0,1-2.4,3.488,6.958,6.958,0,0,1-4.772,1.5,7.075,7.075,0,0,1-4.665-1.455,7.872,7.872,0,0,1-2.439-3.274Q116.95,101.726,115.709,97.318ZM193.64,100.1l-3-7.874H165.138l-3,8.046a28.165,28.165,0,0,1-3,6.355,4.762,4.762,0,0,1-4.066,1.648,5.961,5.961,0,0,1-4.237-1.755,5.373,5.373,0,0,1-1.84-3.98,8.878,8.878,0,0,1,.428-2.653q.428-1.369,1.412-3.809l16.049-40.742q.685-1.755,1.648-4.215a21.314,21.314,0,0,1,2.054-4.087,8.346,8.346,0,0,1,2.867-2.632,8.789,8.789,0,0,1,4.387-1.006,8.885,8.885,0,0,1,4.429,1.006,8.516,8.516,0,0,1,2.867,2.589,18.16,18.16,0,0,1,1.84,3.4q.749,1.819,1.9,4.857l16.391,40.485q1.926,4.622,1.926,6.719a5.562,5.562,0,0,1-1.819,4A5.978,5.978,0,0,1,201,108.273a5.687,5.687,0,0,1-2.568-.535,5.259,5.259,0,0,1-1.8-1.455,13.387,13.387,0,0,1-1.562-2.825Q194.24,101.554,193.64,100.1ZM168.476,82.681h18.745L177.763,56.79Zm72.411.086H229.247v17.76a8.3,8.3,0,0,1-1.8,5.777,6.333,6.333,0,0,1-9.158.021,8.274,8.274,0,0,1-1.755-5.713V52.253q0-4.194,1.926-5.991t6.12-1.8h16.305a42.732,42.732,0,0,1,11.127,1.113,16.568,16.568,0,0,1,6.655,3.552,16.016,16.016,0,0,1,4.258,6.077,21.391,21.391,0,0,1,1.455,8.088q0,9.586-5.906,14.529T240.887,82.767Zm-3.081-28.759h-8.559V73.181h8.559a25.567,25.567,0,0,0,7.511-.942,8.754,8.754,0,0,0,4.6-3.081,9.2,9.2,0,0,0,1.583-5.606,9.506,9.506,0,0,0-2.439-6.762Q246.322,54.008,237.806,54.008Z" transform="translate(615.79 372.38)" fill="#fff"/><path d="M67.115,3.068a6.135,6.135,0,0,1,10.627,0l66.284,114.816a6.135,6.135,0,0,1-5.313,9.2H6.144a6.135,6.135,0,0,1-5.313-9.2Z" transform="translate(530.836 374.727) rotate(90)" fill="#fff"/><g transform="translate(441 519.583) rotate(-90)"><path d="M 138.7114105224609 124.5863494873047 L 6.144394397735596 124.5863494873047 C 4.830206871032715 124.5863494873047 3.653331995010376 123.9068908691406 2.996206998825073 122.7687835693359 C 2.339102983474731 121.6306838989258 2.339082002639771 120.2717437744141 2.996123790740967 119.1335983276367 L 69.27962493896484 4.317722320556641 C 69.93670654296875 3.179513931274414 71.1136474609375 2.499993085861206 72.42789459228516 2.499993085861206 C 73.74214172363281 2.499993085861206 74.91908264160156 3.179513931274414 75.57616424560547 4.317722320556641 L 141.8596801757812 119.1335983276367 C 142.5167236328125 120.2717437744141 142.5166931152344 121.6306991577148 141.8595886230469 122.7688064575195 C 141.2024841308594 123.9068908691406 140.0255889892578 124.5863494873047 138.7114105224609 124.5863494873047 Z" stroke="none"/><path d="M 72.42789459228516 4.999992370605469 C 72.12886810302734 4.999992370605469 71.715576171875 5.098464965820312 71.44473266601562 5.567649841308594 L 5.161239624023438 120.3835144042969 C 4.890365600585938 120.852668762207 5.011734008789062 121.2598114013672 5.1612548828125 121.5187377929688 C 5.310760498046875 121.7776947021484 5.6026611328125 122.0863494873047 6.144393920898438 122.0863494873047 L 138.7114105224609 122.0863494873047 C 139.2531280517578 122.0863494873047 139.5450286865234 121.7776947021484 139.6945343017578 121.5187606811523 C 139.8440551757812 121.2598114013672 139.9654235839844 120.852668762207 139.6945495605469 120.3835144042969 L 73.41107940673828 5.567649841308594 C 73.14021301269531 5.098464965820312 72.72692108154297 4.999992370605469 72.42789459228516 4.999992370605469 M 72.42789459228516 0 C 74.49423217773438 0 76.56057739257812 1.022605895996094 77.74127960205078 3.06781005859375 L 144.0247802734375 117.8836669921875 C 146.3860473632812 121.9738540649414 143.4342193603516 127.0863494873047 138.7114105224609 127.0863494873047 L 6.144393920898438 127.0863494873047 C 1.42156982421875 127.0863494873047 -1.530258178710938 121.9738540649414 0.8310089111328125 117.8836669921875 L 67.11450958251953 3.06781005859375 C 68.29521179199219 1.022605895996094 70.36155700683594 0 72.42789459228516 0 Z" stroke="none" fill="#fff"/></g></g></svg>