<svg xmlns="http://www.w3.org/2000/svg" width="164.337" height="144.856" viewBox="0 0 164.337 144.856"><g transform="translate(-403.75 -374.727)"><path d="M67.115,3.068a6.135,6.135,0,0,1,10.627,0l66.284,114.816a6.135,6.135,0,0,1-5.313,9.2H6.144a6.135,6.135,0,0,1-5.313-9.2Z" transform="translate(530.836 374.727) rotate(90)" fill="#fff"/><g transform="translate(441 519.583) rotate(-90)"><path d="M 138.7114105224609 124.5863494873047 L 6.144394397735596 124.5863494873047 C 4.830206871032715 124.5863494873047 3.653331995010376 123.9068908691406 2.996206998825073 122.7687835693359 C 2.339102983474731 121.6306838989258 2.339082002639771 120.2717437744141 2.996123790740967 119.1335983276367 L 69.27962493896484 4.317722320556641 C 69.93670654296875 3.179513931274414 71.1136474609375 2.499993085861206 72.42789459228516 2.499993085861206 C 73.74214172363281 2.499993085861206 74.91908264160156 3.179513931274414 75.57616424560547 4.317722320556641 L 141.8596801757812 119.1335983276367 C 142.5167236328125 120.2717437744141 142.5166931152344 121.6306991577148 141.8595886230469 122.7688064575195 C 141.2024841308594 123.9068908691406 140.0255889892578 124.5863494873047 138.7114105224609 124.5863494873047 Z" stroke="none"/><path d="M 72.42789459228516 4.999992370605469 C 72.12886810302734 4.999992370605469 71.715576171875 5.098464965820312 71.44473266601562 5.567649841308594 L 5.161239624023438 120.3835144042969 C 4.890365600585938 120.852668762207 5.011734008789062 121.2598114013672 5.1612548828125 121.5187377929688 C 5.310760498046875 121.7776947021484 5.6026611328125 122.0863494873047 6.144393920898438 122.0863494873047 L 138.7114105224609 122.0863494873047 C 139.2531280517578 122.0863494873047 139.5450286865234 121.7776947021484 139.6945343017578 121.5187606811523 C 139.8440551757812 121.2598114013672 139.9654235839844 120.852668762207 139.6945495605469 120.3835144042969 L 73.41107940673828 5.567649841308594 C 73.14021301269531 5.098464965820312 72.72692108154297 4.999992370605469 72.42789459228516 4.999992370605469 M 72.42789459228516 0 C 74.49423217773438 0 76.56057739257812 1.022605895996094 77.74127960205078 3.06781005859375 L 144.0247802734375 117.8836669921875 C 146.3860473632812 121.9738540649414 143.4342193603516 127.0863494873047 138.7114105224609 127.0863494873047 L 6.144393920898438 127.0863494873047 C 1.42156982421875 127.0863494873047 -1.530258178710938 121.9738540649414 0.8310089111328125 117.8836669921875 L 67.11450958251953 3.06781005859375 C 68.29521179199219 1.022605895996094 70.36155700683594 0 72.42789459228516 0 Z" stroke="none" fill="#fff"/></g></g></svg>